grf
version=1
nRows=17
nColumns=37
inDegrees=no
endheader
time	ground_force_1_vx	ground_force_1_vy	ground_force_1_vz	ground_force_1_px	ground_force_1_py	ground_force_1_pz	ground_moment_1_mx	ground_moment_1_my	ground_moment_1_mz	ground_force_2_vx	ground_force_2_vy	ground_force_2_vz	ground_force_2_px	ground_force_2_py	ground_force_2_pz	ground_moment_2_mx	ground_moment_2_my	ground_moment_2_mz	ground_force_3_vx	ground_force_3_vy	ground_force_3_vz	ground_force_3_px	ground_force_3_py	ground_force_3_pz	ground_moment_3_mx	ground_moment_3_my	ground_moment_3_mz	ground_force_4_vx	ground_force_4_vy	ground_force_4_vz	ground_force_4_px	ground_force_4_py	ground_force_4_pz	ground_moment_4_mx	ground_moment_4_my	ground_moment_4_mz
      1.78000000	      0.00000000	     -0.00000000	      0.00000000	      0.00000000	      0.00000000	      0.00000000	      0.00000000	      0.00000000	      0.00000000	      3.90837336	     24.38322067	   -394.71200562	   -320.47028980	  -1071.22346754	      0.00000000	      0.00000000	      0.00000000	   1633.57244585	     -2.71415212	    -24.78465819	   -333.58105469	   -298.42269272	   -752.23208742	      0.00000000	      0.00000000	     -0.00000000	  -2400.54257089	      0.00000000	     -0.00000000	      0.00000000	      0.00000000	      0.00000000	      0.00000000	      0.00000000	      0.00000000	      0.00000000
      1.79000000	      0.00000000	     -0.00000000	      0.00000000	      0.00000000	      0.00000000	      0.00000000	      0.00000000	      0.00000000	      0.00000000	      3.97823453	     24.26295662	   -396.55480957	   -320.95472079	  -1071.88660851	      0.00000000	      0.00000000	      0.00000000	   1590.90762880	     -2.44794250	    -24.60594537	   -333.29827881	   -299.27478057	   -753.13312863	      0.00000000	      0.00000000	     -0.00000000	  -2434.17118073	      0.00000000	     -0.00000000	      0.00000000	      0.00000000	      0.00000000	      0.00000000	      0.00000000	      0.00000000	      0.00000000
      1.80000000	      0.00000000	     -0.00000000	      0.00000000	      0.00000000	      0.00000000	      0.00000000	      0.00000000	      0.00000000	      0.00000000	      3.85575080	     24.27973938	   -394.14880371	   -320.59685332	  -1071.21936363	      0.00000000	      0.00000000	      0.00000000	   1655.07465728	     -2.42580251	    -24.99503687	   -333.65780640	   -298.75326915	   -753.22467914	      0.00000000	      0.00000000	     -0.00000000	  -2509.96344978	      0.00000000	     -0.00000000	      0.00000000	      0.00000000	      0.00000000	      0.00000000	      0.00000000	      0.00000000	      0.00000000
      1.81000000	      0.00000000	     -0.00000000	      0.00000000	      0.00000000	      0.00000000	      0.00000000	      0.00000000	      0.00000000	      0.00000000	      4.03095627	     24.29966354	   -393.08929443	   -321.13856538	  -1070.13331382	      0.00000000	     -0.00000000	      0.00000000	   1676.46758259	     -2.53652886	    -24.89024903	   -333.93096924	   -299.11491568	   -753.27485781	      0.00000000	      0.00000000	     -0.00000000	  -2414.01051098	      0.00000000	     -0.00000000	      0.00000000	      0.00000000	      0.00000000	      0.00000000	      0.00000000	      0.00000000	      0.00000000
      1.82000000	      0.00000000	     -0.00000000	      0.00000000	      0.00000000	      0.00000000	      0.00000000	      0.00000000	      0.00000000	      0.00000000	      3.83226633	     24.34891319	   -395.09405518	   -320.66405086	  -1070.81614223	      0.00000000	      0.00000000	     -0.00000000	   1781.85709416	     -2.48390417	    -25.13567521	   -334.06024170	   -298.72525576	   -753.04465864	      0.00000000	      0.00000000	     -0.00000000	  -2385.33490152	      0.00000000	     -0.00000000	      0.00000000	      0.00000000	      0.00000000	      0.00000000	      0.00000000	      0.00000000	      0.00000000
      1.83000000	      0.00000000	     -0.00000000	      0.00000000	      0.00000000	      0.00000000	      0.00000000	      0.00000000	      0.00000000	      0.00000000	      3.92526245	     24.42173004	   -395.08010864	   -320.77243130	  -1071.23769099	      0.00000000	      0.00000000	      0.00000000	   1722.63583629	     -2.62881569	    -24.99873901	   -335.94784546	   -298.58856427	   -752.42247748	      0.00000000	      0.00000000	     -0.00000000	  -2392.50957325	      0.00000000	     -0.00000000	      0.00000000	      0.00000000	      0.00000000	      0.00000000	      0.00000000	      0.00000000	      0.00000000
      1.84000000	      0.00000000	     -0.00000000	      0.00000000	      0.00000000	      0.00000000	      0.00000000	      0.00000000	      0.00000000	      0.00000000	      4.29374266	     24.35308266	   -394.85516357	   -320.54642700	  -1069.55997559	      0.00000000	     -0.00000000	      0.00000000	   1782.17177556	     -2.60890679	    -25.06328178	   -334.15399170	   -298.80876751	   -753.73867960	      0.00000000	     -0.00000000	     -0.00000000	  -2455.72693364	      0.00000000	     -0.00000000	      0.00000000	      0.00000000	      0.00000000	      0.00000000	      0.00000000	      0.00000000	      0.00000000
      1.85000000	      0.00000000	     -0.00000000	      0.00000000	      0.00000000	      0.00000000	      0.00000000	      0.00000000	      0.00000000	      0.00000000	      3.84087181	     24.25936890	   -395.06326294	   -320.67077463	  -1070.42656225	      0.00000000	      0.00000000	      0.00000000	   1503.32808212	     -2.45195916	    -24.85460260	   -334.50466919	   -298.72879444	   -753.26057453	      0.00000000	     -0.00000000	     -0.00000000	  -2412.27234270	      0.00000000	     -0.00000000	      0.00000000	      0.00000000	      0.00000000	      0.00000000	      0.00000000	      0.00000000	      0.00000000
      1.86000000	      0.00000000	     -0.00000000	      0.00000000	      0.00000000	      0.00000000	      0.00000000	      0.00000000	      0.00000000	      0.00000000	      3.69948626	     24.51086044	   -395.06301880	   -320.31463378	  -1070.73994643	      0.00000000	      0.00000000	      0.00000000	   1540.01069065	     -2.36825042	    -25.13540629	   -335.65945435	   -298.13692638	   -753.75834230	      0.00000000	      0.00000000	     -0.00000000	  -2517.09120802	      0.00000000	     -0.00000000	      0.00000000	      0.00000000	      0.00000000	      0.00000000	      0.00000000	      0.00000000	      0.00000000
      1.87000000	      0.00000000	     -0.00000000	      0.00000000	      0.00000000	      0.00000000	      0.00000000	      0.00000000	      0.00000000	      0.00000000	      3.78916311	     24.79386711	   -394.44009399	   -319.99233332	  -1070.37585517	      0.00000000	      0.00000000	      0.00000000	   1619.50870869	     -2.83874732	    -25.23927282	   -335.24731445	   -297.78496548	   -753.29018140	      0.00000000	     -0.00000000	     -0.00000000	  -2401.72345465	      0.00000000	     -0.00000000	      0.00000000	      0.00000000	      0.00000000	      0.00000000	      0.00000000	      0.00000000	      0.00000000
      1.88000000	      0.00000000	     -0.00000000	      0.00000000	      0.00000000	      0.00000000	      0.00000000	      0.00000000	      0.00000000	      0.00000000	      3.70998645	     24.29577827	   -395.64608765	   -319.92432800	  -1070.90331837	      0.00000000	      0.00000000	      0.00000000	   1573.19744828	     -2.84419924	    -25.22901510	   -334.89764404	   -298.15101589	   -753.56996847	      0.00000000	      0.00000000	     -0.00000000	  -2427.76855644	      0.00000000	     -0.00000000	      0.00000000	      0.00000000	      0.00000000	      0.00000000	      0.00000000	      0.00000000	      0.00000000
      1.89000000	      0.00000000	     -0.00000000	      0.00000000	      0.00000000	      0.00000000	      0.00000000	      0.00000000	      0.00000000	      0.00000000	      3.85759997	     25.01177216	   -393.91735840	   -319.72080691	  -1071.06787046	      0.00000000	      0.00000000	      0.00000000	   1860.68079113	     -2.49933700	    -25.04688050	   -335.39050293	   -296.99459741	   -753.02682847	      0.00000000	      0.00000000	     -0.00000000	  -2552.03707479	      0.00000000	     -0.00000000	      0.00000000	      0.00000000	      0.00000000	      0.00000000	      0.00000000	      0.00000000	      0.00000000
      1.90000000	      0.00000000	     -0.00000000	      0.00000000	      0.00000000	      0.00000000	      0.00000000	      0.00000000	      0.00000000	      0.00000000	      3.83605194	     24.45869446	   -393.88186646	   -319.71525254	  -1070.28075861	      0.00000000	      0.00000000	      0.00000000	   1607.21016094	     -2.57261496	    -25.15646912	   -335.79949951	   -297.95946534	   -753.30147777	      0.00000000	     -0.00000000	     -0.00000000	  -2538.86331019	      0.00000000	     -0.00000000	      0.00000000	      0.00000000	      0.00000000	      0.00000000	      0.00000000	      0.00000000	      0.00000000
      1.91000000	      0.00000000	     -0.00000000	      0.00000000	      0.00000000	      0.00000000	      0.00000000	      0.00000000	      0.00000000	      0.00000000	      3.60547781	     24.48755646	   -392.90997314	   -319.92465635	  -1069.68303239	      0.00000000	     -0.00000000	     -0.00000000	   1589.55515200	     -2.61809044	    -25.08335854	   -338.38757324	   -297.82585719	   -752.36069441	      0.00000000	      0.00000000	     -0.00000000	  -2669.67615703	      0.00000000	     -0.00000000	      0.00000000	      0.00000000	      0.00000000	      0.00000000	      0.00000000	      0.00000000	      0.00000000
      1.92000000	      0.00000000	     -0.00000000	      0.00000000	      0.00000000	      0.00000000	      0.00000000	      0.00000000	      0.00000000	      0.00000000	      3.49417591	     24.64484787	   -395.73696899	   -319.55737713	  -1071.69601093	      0.00000000	      0.00000000	      0.00000000	   1594.03590103	     -2.86055808	    -25.06164335	   -337.13546753	   -297.28188029	   -752.80838187	      0.00000000	      0.00000000	     -0.00000000	  -2527.42629310	      0.00000000	     -0.00000000	      0.00000000	      0.00000000	      0.00000000	      0.00000000	      0.00000000	      0.00000000	      0.00000000
      1.93000000	      0.00000000	     -0.00000000	      0.00000000	      0.00000000	      0.00000000	      0.00000000	      0.00000000	      0.00000000	      0.00000000	      3.38242078	     24.48849106	   -393.38385010	   -319.29733208	  -1070.97817787	      0.00000000	      0.00000000	      0.00000000	   1721.35199094	     -2.70541100	    -24.98022628	   -335.88385010	   -296.98684156	   -754.59164417	      0.00000000	      0.00000000	     -0.00000000	  -2591.99192199	      0.00000000	     -0.00000000	      0.00000000	      0.00000000	      0.00000000	      0.00000000	      0.00000000	      0.00000000	      0.00000000
      1.94000000	      0.00000000	     -0.00000000	      0.00000000	      0.00000000	      0.00000000	      0.00000000	      0.00000000	      0.00000000	      0.00000000	      3.25562429	     24.39916801	   -392.85232544	   -318.81901859	  -1070.58447617	      0.00000000	      0.00000000	      0.00000000	   1700.54331493	     -3.33403021	    -25.26000184	   -337.71713257	   -297.36364787	   -752.71059685	      0.00000000	     -0.00000000	     -0.00000000	  -2448.09745261	      0.00000000	     -0.00000000	      0.00000000	      0.00000000	      0.00000000	      0.00000000	      0.00000000	      0.00000000	      0.00000000
